<svg xmlns="http://www.w3.org/2000/svg" version="1.1" xmlns:xlink="http://www.w3.org/1999/xlink" xmlns:svgjs="http://svgjs.dev/svgjs" width="1000" height="1000"><style>
    #light-icon {
      display: inline;
    }
    #dark-icon {
      display: none;
    }

    @media (prefers-color-scheme: dark) {
      #light-icon {
        display: none;
      }
      #dark-icon {
        display: inline;
      }
    }
  </style><g id="light-icon"><svg xmlns="http://www.w3.org/2000/svg" version="1.1" xmlns:xlink="http://www.w3.org/1999/xlink" xmlns:svgjs="http://svgjs.dev/svgjs" width="1000" height="1000"><g><g transform="matrix(20,0,0,20,0,0)"><svg xmlns="http://www.w3.org/2000/svg" version="1.1" xmlns:xlink="http://www.w3.org/1999/xlink" xmlns:svgjs="http://svgjs.dev/svgjs" width="50" height="50"><svg width="50" height="50" viewBox="0 0 50 50" fill="none" xmlns="http://www.w3.org/2000/svg">
<path d="M25 9V35" stroke="#8000FF" stroke-width="2" stroke-linecap="round"></path>
<circle cx="25" cy="25" r="23.5" stroke="black" stroke-width="3"></circle>
<path d="M15 22V35" stroke="black" stroke-width="2" stroke-linecap="round"></path>
<path d="M47 35L4 35" stroke="black" stroke-width="2" stroke-linecap="round"></path>
<path d="M41 42L9 42" stroke="black" stroke-width="2" stroke-linecap="round"></path>
<path d="M10 28V35" stroke="black" stroke-width="2" stroke-linecap="round"></path>
<path d="M40 28V35" stroke="black" stroke-width="2" stroke-linecap="round"></path>
<path d="M20 15V35" stroke="black" stroke-width="2" stroke-linecap="round"></path>
<path d="M35 22V35" stroke="black" stroke-width="2" stroke-linecap="round"></path>
<path d="M30 16V35" stroke="black" stroke-width="2" stroke-linecap="round"></path>
</svg></svg></g></g></svg></g><g id="dark-icon"><svg xmlns="http://www.w3.org/2000/svg" version="1.1" xmlns:xlink="http://www.w3.org/1999/xlink" xmlns:svgjs="http://svgjs.dev/svgjs" width="1000" height="1000"><g clip-path="url(#SvgjsClipPath1006)"><rect width="1000" height="1000" fill="#ffffff"></rect><g transform="matrix(14,0,0,14,150,150)"><svg xmlns="http://www.w3.org/2000/svg" version="1.1" xmlns:xlink="http://www.w3.org/1999/xlink" xmlns:svgjs="http://svgjs.dev/svgjs" width="50" height="50"><svg width="50" height="50" viewBox="0 0 50 50" fill="none" xmlns="http://www.w3.org/2000/svg">
<path d="M25 9V35" stroke="#8000FF" stroke-width="2" stroke-linecap="round"></path>
<circle cx="25" cy="25" r="23.5" stroke="black" stroke-width="3"></circle>
<path d="M15 22V35" stroke="black" stroke-width="2" stroke-linecap="round"></path>
<path d="M47 35L4 35" stroke="black" stroke-width="2" stroke-linecap="round"></path>
<path d="M41 42L9 42" stroke="black" stroke-width="2" stroke-linecap="round"></path>
<path d="M10 28V35" stroke="black" stroke-width="2" stroke-linecap="round"></path>
<path d="M40 28V35" stroke="black" stroke-width="2" stroke-linecap="round"></path>
<path d="M20 15V35" stroke="black" stroke-width="2" stroke-linecap="round"></path>
<path d="M35 22V35" stroke="black" stroke-width="2" stroke-linecap="round"></path>
<path d="M30 16V35" stroke="black" stroke-width="2" stroke-linecap="round"></path>
</svg></svg></g></g><defs><clipPath id="SvgjsClipPath1006"><rect width="1000" height="1000" x="0" y="0" rx="350" ry="350"></rect></clipPath></defs></svg></g></svg>